<svg xmlns="http://www.w3.org/2000/svg" viewBox="0 0 160 160"><defs><linearGradient id="bg" x2="0" y2="1"><stop stop-color="#f7faef"/><stop offset="1" stop-color="#e4e9d2"/></linearGradient><linearGradient id="pod" x2="1"><stop stop-color="#70a04a"/><stop offset="1" stop-color="#477941"/></linearGradient></defs><rect width="160" height="160" rx="28" fill="url(#bg)"/><ellipse cx="80" cy="142" rx="50" ry="7" fill="#c5cba9"/><path d="M80 138Q78 98 80 40M79 108Q51 83 35 61M81 93Q107 72 128 51M78 119Q54 111 40 92" fill="none" stroke="#866a43" stroke-width="4" stroke-linecap="round"/><g fill="#79a552" stroke="#507c43" stroke-width="1.5"><ellipse cx="37" cy="58" rx="14" ry="8" transform="rotate(25 37 58)"/><ellipse cx="57" cy="79" rx="14" ry="8" transform="rotate(25 57 79)"/><ellipse cx="126" cy="48" rx="14" ry="8" transform="rotate(-28 126 48)"/><ellipse cx="106" cy="68" rx="14" ry="8" transform="rotate(-28 106 68)"/></g><g fill="url(#pod)" stroke="#3f6c37" stroke-width="2"><path d="M46 91Q51 79 61 82Q68 85 66 91Q67 100 58 103Q48 103 46 91Z"/><path d="M91 106Q95 94 106 96Q114 99 111 106Q111 115 101 117Q92 116 91 106Z"/><path d="M97 59Q102 48 112 51Q120 54 117 61Q117 70 107 72Q98 69 97 59Z"/></g><path d="M52 88Q57 84 62 88M98 103Q103 99 108 103M103 56Q108 53 113 57" fill="none" stroke="#d3e3a5" stroke-width="2"/><g fill="#c89a43"><ellipse cx="45" cy="128" rx="7" ry="5"/><ellipse cx="61" cy="132" rx="7" ry="5"/><ellipse cx="78" cy="128" rx="7" ry="5"/></g></svg>
