<svg xmlns="http://www.w3.org/2000/svg" viewBox="0 0 160 160"><defs><linearGradient id="bg" x2="0" y2="1"><stop stop-color="#f6f8f1"/><stop offset="1" stop-color="#e5ebdc"/></linearGradient><radialGradient id="boll"><stop stop-color="#fff"/><stop offset="1" stop-color="#e5e9e1"/></radialGradient></defs><rect width="160" height="160" rx="28" fill="url(#bg)"/><ellipse cx="80" cy="143" rx="50" ry="7" fill="#c9d1bc"/><path d="M79 138Q78 91 78 50M77 109Q48 85 32 66M80 106Q108 79 129 60" fill="none" stroke="#548749" stroke-width="5" stroke-linecap="round"/><g fill="#6d9e58" stroke="#477a43" stroke-width="2"><path d="M77 101Q52 93 45 76Q66 73 78 92Z"/><path d="M83 97Q101 77 119 79Q110 100 84 106Z"/><path d="M75 130Q48 124 42 111Q62 107 77 120Z"/></g><g fill="url(#boll)" stroke="#c9d1c6" stroke-width="2"><circle cx="44" cy="63" r="15"/><circle cx="56" cy="55" r="16"/><circle cx="68" cy="64" r="15"/><circle cx="105" cy="60" r="15"/><circle cx="117" cy="52" r="16"/><circle cx="129" cy="61" r="14"/><circle cx="75" cy="44" r="14"/></g><path d="M48 75Q55 87 63 76M110 72Q118 84 126 73" fill="none" stroke="#568348" stroke-width="3"/></svg>
